/* XPM */
static char *flviewer[] = {
/* columns rows colors chars-per-pixel */
"44 44 6 1 ",
"  c black",
". c red",
"X c green",
"o c blue",
"O c white",
"+ c None",
/* pixels */
"+++++                             ++++++++++",
"+++++ OOOOOOOOOOOOOOOOOOOOOOOOOO O +++++++++",
"+++++ OOOOOOOOOOOOOOOOOOOOOOOOOO OO ++++++++",
"+++++ OOOOOOOOOOOOOOOOOOOOOOOOOO OOO +++++++",
"+++++ OOOOOOOOOOOOOOOOOOOOOOOOOO OOOO ++++++",
"+++++ OOOOOOOOOOOOOOOOOOOOOOOOOO      ++++++",
"+++++ OOOOOOOOOOOOOOOOOOOOOOOOOOOOOOO ++++++",
"+++++ OOOOOOOOOOOOOOOOOOOOOOOOOOOOOOO ++++++",
"+++++ OOOOoooooooooooooooooooooooOOOO ++++++",
"+++++ OOOoooooooooooooooooooooooooOOO ++++++",
"+++++ OOoooooooooooooooooooooooooooOO ++++++",
"+++++ OOoooooooooooooooooooooooooooOO ++++++",
"+++++ OOooooooooooooooooXXXXXXXXXXXOO ++++++",
"+++++ OO.........OOOOOOOOOXXXXXXXXXOO ++++++",
"+++++ OO.......OOO       OOOXXXXXXXOO ++++++",
"+++++ OO.....OOO  OOOOOOO  OOOXXXXXOO ++++++",
"+++++ OO....OO  OOOOOOOOOOO  OOXXXXOO ++++++",
"+++++ OO..OOO OOOOOOOOOOOOOOO OOOXXOO ++++++",
"+++++ OO.OO  OOOOOOXX...OOOOOO  OOXOO ++++++",
"+++++ OOOO OOOOOOOXXX....OOOOOOO OOOO ++++++",
"+++++ OOO OOOOOOOXXXXX....OOOOOOO OOO ++++++",
"+++++ OO OOOOOOOXXXXXX.....OOOOOOO OO ++++++",
"+++++ O OOOOOOOXXXXXXX......OOOOOOO O ++++++",
"+++++ O OOOOOOOXXXXXXX......OOOOOOO O ++++++",
"+++++ O OOOOOOOooooooo......OOOOOOO O ++++++",
"+++++ OO OOOOOOOoooooooo...OOOOOOO OO ++++++",
"+++++ OOO OOOOOOOooooooo..OOOOOOO OOO ++++++",
"+++++ OOOO OOOOOOOoooooo.OOOOOOO OOOO ++++++",
"+++++ OO.OO  OOOOOOoooooOOOOOO  OOoOO ++++++",
"+++++ OO..OOO OOOOOOOOOOOOOOO OOOooOO ++++++",
"+++++ OO....OO  OOOOOOOOOOO  OOooooOO ++++++",
"+++++ OO.....OOO  OOOOOOO  OOOoooooOO ++++++",
"+++++ OO.......OOO       OOOoooooooOO ++++++",
"+++++ OO.........OOOOOOOOOoooooooooOO ++++++",
"+++++ OO...........XXXXXXXXXXXXXXXXOO ++++++",
"+++++ OOXXXXXXXXXXXXXXXXXXXXXXXXXXXOO ++++++",
"+++++ OOOXXXXXXXXXXXXXXXXXXXXXXXXXOOO ++++++",
"+++++ OOOOXXXXXXXXXXXXXXXXXXXXXXXOOOO ++++++",
"+++++ OOOOOOOOOOOOOOOOOOOOOOOOOOOOOOO ++++++",
"+++++ OOOOOOOOOOOOOOOOOOOOOOOOOOOOOOO ++++++",
"+++++ OOOOOOOOOOOOOOOOOOOOOOOOOOOOOOO ++++++",
"+++++ OOOOOOOOOOOOOOOOOOOOOOOOOOOOOOO ++++++",
"+++++ OOOOOOOOOOOOOOOOOOOOOOOOOOOOOOO ++++++",
"+++++                                 ++++++"};
