/* XPM */
static char *next[] = {
/* columns rows colors chars-per-pixel */
"24 24 7 1 ",
"  c black",
". c #A8FF00",
"X c #FF8080",
"o c #80FF80",
"O c #8080FF",
"+ c white",
"@ c None",
/* pixels */
"@              @@@@@@@@@",
"@ +++++++++++ + @@@@@@@@",
"@ +++++++++++ ++ @@@@@@@",
"@ +++++++++++ +++ @@@@@@",
"@ +++++++++++ ++++ @@@@@",
"@ +++++++++++      @@@@@",
"@ ++++++++++++++++ @@@@@",
"@ ++++++ooXX++++++ @@@@@",
"@ +++++oooXXX+++++ @@@@@",
"@ ++++oooooXXX++++ @@@@@",
"@ +++ooooooXXXX+++ @@@@@",
"@ ++oooooooXXX   + @@@@@",
"@ ++oooooooXXX ..  @@@@@",
"@ ++OOOOOOOXXX ... @@@@@",
"@ +++OOOOO     .... @@@@",
"@ ++++OOOO ......... @@@",
"@ +++++OOO .......... @@",
"@ ++++++OO ........... @",
"@ ++++++++ .......... @@",
"@ ++++++++ ......... @@@",
"@              .... @@@@",
"@@@@@@@@@@@@@@ ... @@@@@",
"@@@@@@@@@@@@@@ .. @@@@@@",
"@@@@@@@@@@@@@@   @@@@@@@"
};
