/* XPM */
static char *prev[] = {
/* columns rows colors chars-per-pixel */
"24 24 7 1 ",
"  c black",
". c #FFA800",
"X c #FF8080",
"o c #80FF80",
"O c #8080FF",
"+ c white",
"@ c None",
/* pixels */
"@@@@              @@@@@@",
"@@@@ +++++++++++ + @@@@@",
"@@@@ +++++++++++ ++ @@@@",
"@@@@ +++++++++++ +++ @@@",
"@@@@ +++++++++++ ++++ @@",
"@@@@ +++++++++++      @@",
"@@@@ ++++++++++++++++ @@",
"@@@@ ++++++ooXX++++++ @@",
"@@@@ +++++oooXXX+++++ @@",
"@@@@ ++++oooooXXX++++ @@",
"@@@@ +++ooooooXXXX+++ @@",
"@@@@ +   oooooXXXXX++ @@",
"@@@@  .. oooooXXXXX++ @@",
"@@@@ ... OOOOOXXXXX++ @@",
"@@@ ....     OOXXX+++ @@",
"@@ ......... OOXX++++ @@",
"@ .......... OOX+++++ @@",
" ........... OO++++++ @@",
"@ .......... ++++++++ @@",
"@@ ......... ++++++++ @@",
"@@@ ....              @@",
"@@@@ ... @@@@@@@@@@@@@@@",
"@@@@@ .. @@@@@@@@@@@@@@@",
"@@@@@@   @@@@@@@@@@@@@@@"
};
