/* XPM */
static char *zoom_fit[] = {
/* columns rows colors chars-per-pixel */
"24 24 6 1 ",
"  c black",
". c red",
"X c #00FF36",
"o c #2A00FF",
"O c white",
"+ c None",
/* pixels */
"+++++++++++++     ++++++",
"+++++++++++         ++++",
"++++++++++           +++",
"+++++++++    OOOOO    ++",
"++++++++    OOOOOOO    +",
"++++++++   O   O   O   +",
"+++++++   OO ..XXX OO   ",
"+++++++   OO ..XXX OO   ",
"+++++++   OOO...XXOOO   ",
"+++++++   OO .oooo OO   ",
"+++++++   OO ooooo OO   ",
"++++++++   O   O   O   +",
"++++++++    OOOOOOO    +",
"+++++++ O    OOOOO    ++",
"++++++ O O           +++",
"+++++ O   O         ++++",
"++++ O   O ++     ++++++",
"+++ O   O ++++++++++++++",
"++ O   O +++++++++++++++",
"+ O   O ++++++++++++++++",
" O   O +++++++++++++++++",
"+   O ++++++++++++++++++",
"++ O +++++++++++++++++++",
"+++ ++++++++++++++++++++"
};
